<svg width="18" height="20" viewBox="0 0 18 20" fill="none" xmlns="http://www.w3.org/2000/svg">
<path d="M5.57182 17.5551C6.34282 18.5351 7.55402 19.1667 8.91602 19.1667C10.278 19.1667 11.4892 18.5351 12.2602 17.5551C10.0402 17.8559 7.79179 17.8559 5.57182 17.5551Z" fill="url(#paint0_linear_782_312)"/>
<path d="M15.1027 7.25004V7.89547C15.1027 8.67004 15.3238 9.42728 15.738 10.0718L16.7532 11.6511C17.6804 13.0937 16.9726 15.0545 15.3599 15.5106C11.141 16.704 6.69103 16.704 2.47218 15.5106C0.859475 15.0545 0.151604 13.0937 1.07884 11.6511L2.094 10.0718C2.50826 9.42728 2.72931 8.67004 2.72931 7.89547V7.25004C2.72931 3.70621 5.49919 0.833374 8.91602 0.833374C12.3328 0.833374 15.1027 3.70621 15.1027 7.25004Z" fill="url(#paint1_linear_782_312)"/>
<defs>
<linearGradient id="paint0_linear_782_312" x1="1.546" y1="1.75008" x2="20.0329" y2="10.6751" gradientUnits="userSpaceOnUse">
<stop stop-color="#FFDE4F"/>
<stop offset="1" stop-color="#FF9D47"/>
</linearGradient>
<linearGradient id="paint1_linear_782_312" x1="1.546" y1="1.75008" x2="20.0329" y2="10.6751" gradientUnits="userSpaceOnUse">
<stop stop-color="#FFDE4F"/>
<stop offset="1" stop-color="#FF9D47"/>
</linearGradient>
</defs>
</svg>
